<?xml version="1.0" encoding="utf-8"?><svg viewBox="0 0 20 22" xmlns="http://www.w3.org/2000/svg" xmlns:xlink="http://www.w3.org/1999/xlink"><style>:root>svg{display:none}:root>svg:target{display:block}</style><svg viewBox="0 0 13 22" id="right-arrow" xmlns="http://www.w3.org/2000/svg"><path d="M12.452 12.302l-9.27 9.16A1.863 1.863 0 011.864 22c-.494 0-.967-.194-1.316-.539a1.839 1.839 0 01-.546-1.3c0-.488.197-.956.546-1.3L8.52 11 .55 3.144A1.83 1.83 0 010 1.843 1.813 1.813 0 01.55.541 1.856 1.856 0 011.865 0a1.874 1.874 0 011.316.542l9.27 9.159a1.832 1.832 0 01.55 1.3 1.814 1.814 0 01-.55 1.301z"/></svg><svg viewBox="0 0 19 17" id="tg" xmlns="http://www.w3.org/2000/svg"><path d="M12.333 6.625l-3.777 3.75L14.222 16 18 1 1 7.563l3.778 1.875 1.889 5.624 2.833-3.75"/></svg><svg viewBox="0 0 20 11" id="vk" xmlns="http://www.w3.org/2000/svg"><path fill-rule="evenodd" clip-rule="evenodd" d="M6.34.937c.256.121.853.058 1.067.797.193.666.185 2.259.036 3C7.031 6.784 5.29 3.542 4.86 2.83c-.223-.369-.61-1.21-.783-1.62C3.78.5 3.068.651 2.22.651c-.319 0-.534.03-.836.029C.913.68 0 .589 0 1.023c0 .33.19.662.336.95l.788 1.557c.138.261.264.524.42.782l.428.744c1.128 1.842 2.483 4.002 4.513 5 1.538.756 2.262.74 3.948.74.263 0 .592-.14.684-.321.11-.22.1-.583.124-.875.06-.71.408-1.646 1.25-1.067.4.275.885.914 1.25 1.273.197.195.436.45.657.604.114.078.302.191.42.24.696.294 1.496.146 2.36.147.478 0 1.313.078 1.716-.183.64-.414 0-1.153-.362-1.613a17.679 17.679 0 00-1.29-1.346c-1.854-1.614-1.483-1.352.437-3.885.403-.531 1.487-1.923 1.487-2.662 0-.387-.415-.42-.726-.453-.16-.017-.204.025-.368.027-.51.006-2.835-.056-3.126.044-.188.064-.295.255-.371.43-.432.995-.727 1.68-1.346 2.602-.25.374-1.054 1.624-1.557 1.624-.36 0-.49-.709-.49-1.054 0-1.047.058-2.002.058-3.02a1.47 1.47 0 00-.12-.595C10.806.058 9.09.196 8.3.196c-.57 0-1.49.059-1.845.512-.056.07-.104.108-.115.23z"/></svg><svg viewBox="0 0 18 18" id="whatsapp" xmlns="http://www.w3.org/2000/svg"><path fill-rule="evenodd" clip-rule="evenodd" d="M17.613 8.38c0 4.654-3.78 8.38-8.446 8.38a8.46 8.46 0 01-4.082-1.042L.41 17.203l1.524-4.496A8.297 8.297 0 01.724 8.38C.723 3.752 4.503 0 9.168 0c4.664.001 8.444 3.752 8.444 8.38zm-8.446-7c-3.915 0-7.075 3.117-7.075 7.002 0 1.542.478 2.97 1.328 4.13l-.887 2.616 2.728-.867a7.102 7.102 0 003.906 1.165c3.929 0 7.101-3.16 7.101-7.046 0-3.883-3.167-7-7.101-7zm4.266 8.93c-.053-.084-.19-.135-.397-.239-.207-.103-1.226-.6-1.415-.666-.19-.049-.328-.104-.466.101-.137.206-.534.669-.655.806-.12.137-.242.154-.449.052-.207-.103-.874-.32-1.666-1.019a6.013 6.013 0 01-1.15-1.422c-.122-.206-.013-.317.09-.419.092-.092.207-.24.31-.34.104-.14.138-.225.208-.362.067-.138.053-.257-.018-.361-.052-.103-.465-1.113-.638-1.524-.173-.41-.345-.343-.466-.343-.12 0-.258-.017-.397-.017a.761.761 0 00-.551.257c-.19.206-.725.703-.725 1.714 0 1.011.741 2.024.845 2.124.104.162 1.438 2.279 3.537 3.101 2.106.822 2.106.547 2.485.512.38-.034 1.257-.496 1.397-.975.172-.48.172-.894.12-.98z"/></svg></svg>